<svg width="20" height="20" viewBox="0 0 20 20" fill="none" xmlns="http://www.w3.org/2000/svg">
<g clip-path="url(#clip0_2099_12630)">
<path d="M0.5 4.22222C0.5 2.99653 1.49653 2 2.72222 2H9.77778V6.44444C9.77778 7.05903 10.2743 7.55556 10.8889 7.55556L15 7.5V10.3646L10.3194 14.934C9.96181 15.2917 9.71181 15.7361 9.59028 16.2257L8.94097 18.8264C8.86111 19.1458 8.87847 19.4792 8.98611 19.7812H2.72222C1.49653 19.7812 0.5 18.7847 0.5 17.559V4.22222ZM15 6.44444H10.8889V2L15 6.44444ZM19.0903 10.184L19.5903 10.684C20.1319 11.2257 20.1319 12.1042 19.5903 12.6493L18.5694 13.6701L16.1042 11.2049L17.125 10.184C17.6667 9.64236 18.5451 9.64236 19.0903 10.184ZM10.8299 16.4792L15.316 11.9931L17.7812 14.4583L13.2951 18.941C13.1528 19.0833 12.9757 19.184 12.7778 19.2326L10.691 19.7535C10.5 19.8021 10.3021 19.7465 10.1632 19.6076C10.0243 19.4688 9.96875 19.2708 10.0174 19.0799L10.5382 16.9931C10.5868 16.7986 10.6875 16.6181 10.8299 16.4757V16.4792Z" fill="#FF7A00"/>
</g>
<defs>
<clipPath id="clip0_2099_12630">
<rect width="20" height="17.7778" fill="white" transform="translate(0 2)"/>
</clipPath>
</defs>
</svg>
