<svg width="20" height="20" viewBox="0 0 20 20" fill="none" xmlns="http://www.w3.org/2000/svg">
<g clip-path="url(#clip0_2099_12639)">
<path d="M9.75 10C11.0761 10 12.3479 9.47322 13.2855 8.53553C14.2232 7.59785 14.75 6.32608 14.75 5C14.75 3.67392 14.2232 2.40215 13.2855 1.46447C12.3479 0.526784 11.0761 0 9.75 0C8.42392 0 7.15215 0.526784 6.21447 1.46447C5.27678 2.40215 4.75 3.67392 4.75 5C4.75 6.32608 5.27678 7.59785 6.21447 8.53553C7.15215 9.47322 8.42392 10 9.75 10ZM7.96484 11.875C4.11719 11.875 1 14.9922 1 18.8398C1 19.4805 1.51953 20 2.16016 20H17.3398C17.9805 20 18.5 19.4805 18.5 18.8398C18.5 14.9922 15.3828 11.875 11.5352 11.875H7.96484Z" fill="#FF7A00"/>
</g>
<defs>
<clipPath id="clip0_2099_12639">
<rect width="17.5" height="20" fill="white" transform="translate(1)"/>
</clipPath>
</defs>
</svg>
