<svg width="26" height="22" viewBox="0 0 26 22" fill="none" xmlns="http://www.w3.org/2000/svg">
<path d="M0 1.5L15 0V22L0 20.5V1.5Z" fill="#BEBEBE"/>
<path d="M16 2H25C25.5523 2 26 2.44772 26 3V20C26 20.5523 25.5523 21 25 21H16V2Z" fill="#BEBEBE"/>
<path d="M4 14.5L10.7105 7" stroke="#EFEFEF" stroke-linecap="round"/>
<path d="M4 8.18457L10.2632 14.5004" stroke="#EFEFEF" stroke-linecap="round"/>
<path d="M19 7.5C19.2761 7.5 19.5 7.27614 19.5 7C19.5 6.72386 19.2761 6.5 19 6.5V7.5ZM16 7.5H19V6.5H16V7.5Z" fill="#EFEFEF"/>
<path d="M21 7H23" stroke="#EFEFEF" stroke-linecap="round"/>
<path d="M19 10.5C19.2761 10.5 19.5 10.2761 19.5 10C19.5 9.72386 19.2761 9.5 19 9.5V10.5ZM16 10.5H19V9.5H16V10.5Z" fill="#EFEFEF"/>
<path d="M21 10H23" stroke="#EFEFEF" stroke-linecap="round"/>
<path d="M19 13.5C19.2761 13.5 19.5 13.2761 19.5 13C19.5 12.7239 19.2761 12.5 19 12.5V13.5ZM16 13.5H19V12.5H16V13.5Z" fill="#EFEFEF"/>
<path d="M21 13H23" stroke="#EFEFEF" stroke-linecap="round"/>
<path d="M19 16.5C19.2761 16.5 19.5 16.2761 19.5 16C19.5 15.7239 19.2761 15.5 19 15.5V16.5ZM16 16.5H19V15.5H16V16.5Z" fill="#EFEFEF"/>
<path d="M21 16H23" stroke="#EFEFEF" stroke-linecap="round"/>
</svg>
