<svg width="20" height="20" viewBox="0 0 20 20" fill="none" xmlns="http://www.w3.org/2000/svg">
<g clip-path="url(#clip0_2099_12616)">
<path d="M19 3.125V5C19 6.72656 14.9701 8.125 10 8.125C5.02991 8.125 1 6.72656 1 5V3.125C1 1.39844 5.02991 0 10 0C14.9701 0 19 1.39844 19 3.125ZM16.7982 8.38672C17.6339 8.09766 18.4013 7.72656 19 7.26953V11.25C19 12.9766 14.9701 14.375 10 14.375C5.02991 14.375 1 12.9766 1 11.25V7.26953C1.59866 7.73047 2.36607 8.09766 3.20179 8.38672C5.0058 9.01172 7.40848 9.375 10 9.375C12.5915 9.375 14.9942 9.01172 16.7982 8.38672ZM1 13.5195C1.59866 13.9805 2.36607 14.3477 3.20179 14.6367C5.0058 15.2617 7.40848 15.625 10 15.625C12.5915 15.625 14.9942 15.2617 16.7982 14.6367C17.6339 14.3477 18.4013 13.9766 19 13.5195V16.875C19 18.6016 14.9701 20 10 20C5.02991 20 1 18.6016 1 16.875V13.5195Z" fill="#FF7A00"/>
</g>
<defs>
<clipPath id="clip0_2099_12616">
<rect width="18" height="20" fill="white" transform="translate(1)"/>
</clipPath>
</defs>
</svg>
