<svg width="20" height="20" viewBox="0 0 20 20" fill="none" xmlns="http://www.w3.org/2000/svg">
<rect x="1" width="18" height="20" rx="2" fill="#FF7A00"/>
<path d="M4.58065 5C4.25887 5 4 5.25721 4 5.57692V6.73077C4 7.05048 4.25887 7.30769 4.58065 7.30769H5.74194C6.06371 7.30769 6.32258 7.05048 6.32258 6.73077V5.57692C6.32258 5.25721 6.06371 5 5.74194 5H4.58065ZM8.25806 5.38462C7.82984 5.38462 7.48387 5.72837 7.48387 6.15385C7.48387 6.57933 7.82984 6.92308 8.25806 6.92308H15.2258C15.654 6.92308 16 6.57933 16 6.15385C16 5.72837 15.654 5.38462 15.2258 5.38462H8.25806ZM8.25806 9.23077C7.82984 9.23077 7.48387 9.57452 7.48387 10C7.48387 10.4255 7.82984 10.7692 8.25806 10.7692H15.2258C15.654 10.7692 16 10.4255 16 10C16 9.57452 15.654 9.23077 15.2258 9.23077H8.25806ZM8.25806 13.0769C7.82984 13.0769 7.48387 13.4207 7.48387 13.8462C7.48387 14.2716 7.82984 14.6154 8.25806 14.6154H15.2258C15.654 14.6154 16 14.2716 16 13.8462C16 13.4207 15.654 13.0769 15.2258 13.0769H8.25806ZM4 9.42308V10.5769C4 10.8966 4.25887 11.1538 4.58065 11.1538H5.74194C6.06371 11.1538 6.32258 10.8966 6.32258 10.5769V9.42308C6.32258 9.10337 6.06371 8.84615 5.74194 8.84615H4.58065C4.25887 8.84615 4 9.10337 4 9.42308ZM4.58065 12.6923C4.25887 12.6923 4 12.9495 4 13.2692V14.4231C4 14.7428 4.25887 15 4.58065 15H5.74194C6.06371 15 6.32258 14.7428 6.32258 14.4231V13.2692C6.32258 12.9495 6.06371 12.6923 5.74194 12.6923H4.58065Z" fill="white"/>
</svg>
