<svg width="20" height="20" viewBox="0 0 20 20" fill="none" xmlns="http://www.w3.org/2000/svg">
<path d="M1 5.75243C1 5.23211 1.47405 4.81031 2.05882 4.81031H10.5294C11.1142 4.81031 11.5882 5.23211 11.5882 5.75243V11.4052C11.5882 11.9255 11.1142 12.3473 10.5294 12.3473H2.05882C1.47405 12.3473 1 11.9255 1 11.4052V5.75243Z" fill="#FF7A00"/>
<path d="M6.2577 5.73498C6.28071 5.44839 6.44943 5.18681 6.71593 5.02456L14.6962 0.166197C15.3989 -0.26162 16.3529 0.186115 16.3529 0.943734V16.264C16.3529 17.0115 15.4214 17.4613 14.717 17.0539L6.28828 12.179C5.96523 11.9922 5.78175 11.664 5.8092 11.322L6.2577 5.73498Z" fill="#FF7A00"/>
<path d="M2.05882 12.3473C2.05882 11.827 2.53288 11.4052 3.11765 11.4052H5.23529C5.82007 11.4052 6.29412 11.827 6.29412 12.3473V17.0579C6.29412 17.5782 5.82007 18 5.23529 18H3.11765C2.53288 18 2.05882 17.5782 2.05882 17.0579L2.05882 12.3473Z" fill="#FF7A00"/>
<path d="M19 8.57879C19 10.1397 17.5778 11.4052 15.8235 11.4052C14.0692 11.4052 12.6471 10.1397 12.6471 8.57879C12.6471 7.01783 14.0692 5.75243 15.8235 5.75243C17.5778 5.75243 19 7.01783 19 8.57879Z" fill="#FF7A00"/>
</svg>
