<svg width="213" height="39" viewBox="0 0 213 39" fill="none" xmlns="http://www.w3.org/2000/svg">
<path d="M64.635 10.23L72.93 9.96C72.975 9.33 72.975 8.745 72.975 8.205H65.055V6.63H74.925V7.845C74.925 9.51 74.94 11.445 74.295 14.475L72.345 14.235C72.585 13.215 72.735 12.3 72.81 11.475L64.89 11.895L64.635 10.23ZM70.05 16.095H76.14V17.7H63.645V16.095H68.07V12.795H70.05V16.095ZM80.2038 11.985V14.475C82.3038 14.46 84.0438 14.355 85.9938 14.025L86.2038 15.63C83.9538 16.02 81.9288 16.11 79.4238 16.11H78.1788V10.425H82.6638V8.22H78.1638V6.645H84.6888V11.985H80.2038ZM86.9538 5.46H88.9338V19.32H86.9538V5.46ZM94.9477 14.505C95.9677 14.505 96.6727 13.41 96.6727 11.355C96.6727 9.315 95.9677 8.22 94.9477 8.22C93.9127 8.22 93.2227 9.315 93.2227 11.355C93.2227 13.41 93.9127 14.505 94.9477 14.505ZM94.9477 6.435C97.0327 6.435 98.5777 8.325 98.5777 11.355C98.5777 14.4 97.0327 16.305 94.9477 16.305C92.8477 16.305 91.3177 14.4 91.3177 11.355C91.3177 8.325 92.8477 6.435 94.9477 6.435ZM104.068 10.68V12.315H102.058V19.29H100.078V5.475H102.058V10.68H104.068ZM116.516 5.49V15.405H114.521V5.49H116.516ZM107.171 9.87C107.171 10.98 107.981 11.655 109.001 11.655C110.036 11.655 110.816 10.98 110.816 9.87C110.816 8.73 110.036 8.07 109.001 8.07C107.981 8.07 107.171 8.73 107.171 9.87ZM112.751 9.87C112.751 11.88 111.116 13.365 109.001 13.365C106.886 13.365 105.236 11.88 105.236 9.87C105.236 7.83 106.886 6.36 109.001 6.36C111.116 6.36 112.751 7.83 112.751 9.87ZM109.301 17.475H116.861V19.05H107.321V14.43H109.301V17.475ZM130.915 11.97L130.075 13.635C127.675 13.155 125.905 11.82 125.02 10.065C124.135 11.82 122.38 13.17 119.98 13.635L119.14 11.97C122.245 11.445 123.97 9.255 123.97 7.275V6.285H126.085V7.275C126.085 9.3 127.795 11.445 130.915 11.97ZM118.84 16.005H131.35V17.61H118.84V16.005ZM143.814 12.6V14.16H134.109V6.48H143.709V8.07H136.119V9.525H143.394V11.055H136.119V12.6H143.814ZM132.639 16.095H145.149V17.7H132.639V16.095ZM155.498 8.55V7.47H147.878V5.91H157.508V10.035H149.918V11.175H157.838V12.735H147.893V8.55H155.498ZM158.948 13.74V15.33H153.653V19.32H151.673V15.33H146.438V13.74H158.948ZM165.382 11.7V8.13H162.757V11.7H165.382ZM167.317 10.71V13.245H160.807V6.585H167.317V9.12H169.807V5.475H171.787V15.54H169.807V10.71H167.317ZM164.662 17.475H172.102V19.05H162.682V14.58H164.662V17.475ZM185.211 12.6V14.16H175.506V6.48H185.106V8.07H177.516V9.525H184.791V11.055H177.516V12.6H185.211ZM174.036 16.095H186.546V17.7H174.036V16.095ZM190.699 21.03C189.289 18.705 188.464 16.275 188.464 13.26C188.464 10.275 189.289 7.815 190.699 5.505L192.079 6.09C190.819 8.28 190.249 10.815 190.249 13.26C190.249 15.735 190.819 18.255 192.079 20.445L190.699 21.03ZM194.823 12.315L194.103 10.77C196.923 10.425 198.393 9.075 198.588 7.755H194.613V6.18H204.858V7.755H200.943C201.138 9.075 202.593 10.425 205.398 10.77L204.693 12.315C202.278 11.985 200.583 10.95 199.758 9.54C198.933 10.95 197.238 11.985 194.823 12.315ZM205.998 13.11V14.685H200.703V19.32H198.723V14.685H193.518V13.11H205.998ZM208.802 21.03L207.437 20.445C208.697 18.255 209.267 15.735 209.267 13.26C209.267 10.815 208.697 8.28 207.437 6.09L208.802 5.505C210.227 7.815 211.052 10.275 211.052 13.26C211.052 16.275 210.227 18.705 208.802 21.03Z" fill="#7B7B7B"/>
<path d="M65.314 33.738L65.275 32.568L70.787 26.9H71.892L67.875 31.112L67.329 31.697L65.314 33.738ZM64.482 36V26.9H65.444V36H64.482ZM71.021 36L67.095 31.476L67.745 30.774L72.165 36H71.021ZM75.4738 36.065C74.8151 36.065 74.2215 35.9177 73.6928 35.623C73.1728 35.3197 72.7611 34.908 72.4578 34.388C72.1545 33.8593 72.0028 33.257 72.0028 32.581C72.0028 31.8963 72.1545 31.294 72.4578 30.774C72.7611 30.254 73.1728 29.8467 73.6928 29.552C74.2128 29.2573 74.8065 29.11 75.4738 29.11C76.1498 29.11 76.7478 29.2573 77.2678 29.552C77.7965 29.8467 78.2081 30.254 78.5028 30.774C78.8061 31.294 78.9578 31.8963 78.9578 32.581C78.9578 33.257 78.8061 33.8593 78.5028 34.388C78.2081 34.908 77.7965 35.3197 77.2678 35.623C76.7391 35.9177 76.1411 36.065 75.4738 36.065ZM75.4738 35.246C75.9678 35.246 76.4055 35.1377 76.7868 34.921C77.1681 34.6957 77.4671 34.3837 77.6838 33.985C77.9091 33.5777 78.0218 33.1097 78.0218 32.581C78.0218 32.0437 77.9091 31.5757 77.6838 31.177C77.4671 30.7783 77.1681 30.4707 76.7868 30.254C76.4055 30.0287 75.9721 29.916 75.4868 29.916C75.0015 29.916 74.5681 30.0287 74.1868 30.254C73.8055 30.4707 73.5021 30.7783 73.2768 31.177C73.0515 31.5757 72.9388 32.0437 72.9388 32.581C72.9388 33.1097 73.0515 33.5777 73.2768 33.985C73.5021 34.3837 73.8055 34.6957 74.1868 34.921C74.5681 35.1377 74.9971 35.246 75.4738 35.246ZM80.3222 36V29.175H81.2062V31.034L81.1152 30.709C81.3059 30.189 81.6265 29.7947 82.0772 29.526C82.5279 29.2487 83.0869 29.11 83.7542 29.11V30.007C83.7195 30.007 83.6849 30.007 83.6502 30.007C83.6155 29.9983 83.5809 29.994 83.5462 29.994C82.8269 29.994 82.2635 30.215 81.8562 30.657C81.4489 31.0903 81.2452 31.71 81.2452 32.516V36H80.3222ZM87.7539 36.065C87.0433 36.065 86.4193 35.9177 85.8819 35.623C85.3446 35.3197 84.9243 34.908 84.6209 34.388C84.3176 33.8593 84.1659 33.257 84.1659 32.581C84.1659 31.905 84.3089 31.307 84.5949 30.787C84.8896 30.267 85.2883 29.8597 85.7909 29.565C86.3023 29.2617 86.8743 29.11 87.5069 29.11C88.1483 29.11 88.7159 29.2573 89.2099 29.552C89.7126 29.838 90.1069 30.2453 90.3929 30.774C90.6789 31.294 90.8219 31.8963 90.8219 32.581C90.8219 32.6243 90.8176 32.672 90.8089 32.724C90.8089 32.7673 90.8089 32.815 90.8089 32.867H84.8679V32.178H90.3149L89.9509 32.451C89.9509 31.957 89.8426 31.5193 89.6259 31.138C89.4179 30.748 89.1319 30.4447 88.7679 30.228C88.4039 30.0113 87.9836 29.903 87.5069 29.903C87.0389 29.903 86.6186 30.0113 86.2459 30.228C85.8733 30.4447 85.5829 30.748 85.3749 31.138C85.1669 31.528 85.0629 31.9743 85.0629 32.477V32.62C85.0629 33.14 85.1756 33.5993 85.4009 33.998C85.6349 34.388 85.9556 34.6957 86.3629 34.921C86.7789 35.1377 87.2513 35.246 87.7799 35.246C88.1959 35.246 88.5816 35.1723 88.9369 35.025C89.3009 34.8777 89.6129 34.6523 89.8729 34.349L90.3929 34.947C90.0896 35.311 89.7083 35.5883 89.2489 35.779C88.7983 35.9697 88.2999 36.065 87.7539 36.065ZM96.2672 36V34.492L96.2282 34.245V31.723C96.2282 31.1423 96.0635 30.696 95.7342 30.384C95.4135 30.072 94.9325 29.916 94.2912 29.916C93.8492 29.916 93.4289 29.9897 93.0302 30.137C92.6315 30.2843 92.2935 30.4793 92.0162 30.722L91.6002 30.033C91.9469 29.7383 92.3629 29.513 92.8482 29.357C93.3335 29.1923 93.8449 29.11 94.3822 29.11C95.2662 29.11 95.9465 29.331 96.4232 29.773C96.9085 30.2063 97.1512 30.8693 97.1512 31.762V36H96.2672ZM93.9142 36.065C93.4029 36.065 92.9565 35.9827 92.5752 35.818C92.2025 35.6447 91.9165 35.4107 91.7172 35.116C91.5179 34.8127 91.4182 34.466 91.4182 34.076C91.4182 33.7207 91.5005 33.4 91.6652 33.114C91.8385 32.8193 92.1159 32.5853 92.4972 32.412C92.8872 32.23 93.4072 32.139 94.0572 32.139H96.4102V32.828H94.0832C93.4245 32.828 92.9652 32.945 92.7052 33.179C92.4539 33.413 92.3282 33.7033 92.3282 34.05C92.3282 34.44 92.4799 34.752 92.7832 34.986C93.0865 35.22 93.5112 35.337 94.0572 35.337C94.5772 35.337 95.0235 35.22 95.3962 34.986C95.7775 34.7433 96.0549 34.3967 96.2282 33.946L96.4362 34.583C96.2629 35.0337 95.9595 35.3933 95.5262 35.662C95.1015 35.9307 94.5642 36.065 93.9142 36.065ZM102.216 36V26.9H103.178V36H102.216ZM108.907 29.11C109.462 29.11 109.947 29.2183 110.363 29.435C110.788 29.643 111.117 29.9637 111.351 30.397C111.594 30.8303 111.715 31.3763 111.715 32.035V36H110.792V32.126C110.792 31.4067 110.61 30.865 110.246 30.501C109.891 30.1283 109.388 29.942 108.738 29.942C108.253 29.942 107.828 30.0417 107.464 30.241C107.109 30.4317 106.832 30.7133 106.632 31.086C106.442 31.45 106.346 31.892 106.346 32.412V36H105.423V29.175H106.307V31.047L106.164 30.696C106.381 30.202 106.728 29.8163 107.204 29.539C107.681 29.253 108.249 29.11 108.907 29.11ZM115.522 36.065C114.958 36.065 114.425 35.987 113.923 35.831C113.42 35.6663 113.026 35.4627 112.74 35.22L113.156 34.492C113.433 34.7 113.788 34.882 114.222 35.038C114.655 35.1853 115.11 35.259 115.587 35.259C116.237 35.259 116.705 35.1593 116.991 34.96C117.277 34.752 117.42 34.479 117.42 34.141C117.42 33.8897 117.337 33.6947 117.173 33.556C117.017 33.4087 116.809 33.3003 116.549 33.231C116.289 33.153 115.998 33.088 115.678 33.036C115.357 32.984 115.036 32.9233 114.716 32.854C114.404 32.7847 114.118 32.685 113.858 32.555C113.598 32.4163 113.385 32.23 113.221 31.996C113.065 31.762 112.987 31.45 112.987 31.06C112.987 30.6873 113.091 30.3537 113.299 30.059C113.507 29.7643 113.81 29.5347 114.209 29.37C114.616 29.1967 115.11 29.11 115.691 29.11C116.133 29.11 116.575 29.1707 117.017 29.292C117.459 29.4047 117.823 29.5563 118.109 29.747L117.706 30.488C117.402 30.28 117.077 30.1327 116.731 30.046C116.384 29.9507 116.037 29.903 115.691 29.903C115.075 29.903 114.62 30.0113 114.326 30.228C114.04 30.436 113.897 30.7047 113.897 31.034C113.897 31.294 113.975 31.4977 114.131 31.645C114.295 31.7923 114.508 31.9093 114.768 31.996C115.036 32.074 115.327 32.139 115.639 32.191C115.959 32.243 116.276 32.308 116.588 32.386C116.908 32.4553 117.199 32.555 117.459 32.685C117.727 32.8063 117.94 32.984 118.096 33.218C118.26 33.4433 118.343 33.7423 118.343 34.115C118.343 34.5137 118.23 34.8603 118.005 35.155C117.788 35.441 117.467 35.6663 117.043 35.831C116.627 35.987 116.12 36.065 115.522 36.065ZM121.674 36.065C121.033 36.065 120.539 35.8917 120.192 35.545C119.846 35.1983 119.672 34.7087 119.672 34.076V27.667H120.595V34.024C120.595 34.4227 120.695 34.7303 120.894 34.947C121.102 35.1637 121.397 35.272 121.778 35.272C122.186 35.272 122.524 35.155 122.792 34.921L123.117 35.584C122.935 35.7487 122.714 35.87 122.454 35.948C122.203 36.026 121.943 36.065 121.674 36.065ZM118.45 29.942V29.175H122.675V29.942H118.45ZM124.277 36V29.175H125.161V31.034L125.07 30.709C125.261 30.189 125.582 29.7947 126.032 29.526C126.483 29.2487 127.042 29.11 127.709 29.11V30.007C127.675 30.007 127.64 30.007 127.605 30.007C127.571 29.9983 127.536 29.994 127.501 29.994C126.782 29.994 126.219 30.215 125.811 30.657C125.404 31.0903 125.2 31.71 125.2 32.516V36H124.277ZM131.796 36.065C131.216 36.065 130.709 35.9567 130.275 35.74C129.842 35.5233 129.504 35.1983 129.261 34.765C129.027 34.3317 128.91 33.79 128.91 33.14V29.175H129.833V33.036C129.833 33.764 130.011 34.3143 130.366 34.687C130.73 35.051 131.237 35.233 131.887 35.233C132.364 35.233 132.776 35.1377 133.122 34.947C133.478 34.7477 133.746 34.4617 133.928 34.089C134.119 33.7163 134.214 33.27 134.214 32.75V29.175H135.137V36H134.253V34.128L134.396 34.466C134.18 34.9687 133.842 35.363 133.382 35.649C132.932 35.9263 132.403 36.065 131.796 36.065ZM145.718 29.11C146.272 29.11 146.753 29.2183 147.161 29.435C147.577 29.643 147.897 29.9637 148.123 30.397C148.357 30.8303 148.474 31.3763 148.474 32.035V36H147.551V32.126C147.551 31.4067 147.377 30.865 147.031 30.501C146.693 30.1283 146.212 29.942 145.588 29.942C145.12 29.942 144.712 30.0417 144.366 30.241C144.028 30.4317 143.763 30.7133 143.573 31.086C143.391 31.45 143.3 31.892 143.3 32.412V36H142.377V32.126C142.377 31.4067 142.203 30.865 141.857 30.501C141.51 30.1283 141.025 29.942 140.401 29.942C139.941 29.942 139.538 30.0417 139.192 30.241C138.845 30.4317 138.576 30.7133 138.386 31.086C138.204 31.45 138.113 31.892 138.113 32.412V36H137.19V29.175H138.074V31.021L137.931 30.696C138.139 30.202 138.472 29.8163 138.932 29.539C139.4 29.253 139.95 29.11 140.583 29.11C141.25 29.11 141.818 29.279 142.286 29.617C142.754 29.9463 143.057 30.4447 143.196 31.112L142.832 30.969C143.031 30.4143 143.382 29.968 143.885 29.63C144.396 29.2833 145.007 29.11 145.718 29.11ZM153.356 36.065C152.645 36.065 152.021 35.9177 151.484 35.623C150.946 35.3197 150.526 34.908 150.223 34.388C149.919 33.8593 149.768 33.257 149.768 32.581C149.768 31.905 149.911 31.307 150.197 30.787C150.491 30.267 150.89 29.8597 151.393 29.565C151.904 29.2617 152.476 29.11 153.109 29.11C153.75 29.11 154.318 29.2573 154.812 29.552C155.314 29.838 155.709 30.2453 155.995 30.774C156.281 31.294 156.424 31.8963 156.424 32.581C156.424 32.6243 156.419 32.672 156.411 32.724C156.411 32.7673 156.411 32.815 156.411 32.867H150.47V32.178H155.917L155.553 32.451C155.553 31.957 155.444 31.5193 155.228 31.138C155.02 30.748 154.734 30.4447 154.37 30.228C154.006 30.0113 153.585 29.903 153.109 29.903C152.641 29.903 152.22 30.0113 151.848 30.228C151.475 30.4447 151.185 30.748 150.977 31.138C150.769 31.528 150.665 31.9743 150.665 32.477V32.62C150.665 33.14 150.777 33.5993 151.003 33.998C151.237 34.388 151.557 34.6957 151.965 34.921C152.381 35.1377 152.853 35.246 153.382 35.246C153.798 35.246 154.183 35.1723 154.539 35.025C154.903 34.8777 155.215 34.6523 155.475 34.349L155.995 34.947C155.691 35.311 155.31 35.5883 154.851 35.779C154.4 35.9697 153.902 36.065 153.356 36.065ZM161.266 29.11C161.821 29.11 162.306 29.2183 162.722 29.435C163.147 29.643 163.476 29.9637 163.71 30.397C163.953 30.8303 164.074 31.3763 164.074 32.035V36H163.151V32.126C163.151 31.4067 162.969 30.865 162.605 30.501C162.25 30.1283 161.747 29.942 161.097 29.942C160.612 29.942 160.187 30.0417 159.823 30.241C159.468 30.4317 159.191 30.7133 158.991 31.086C158.801 31.45 158.705 31.892 158.705 32.412V36H157.782V29.175H158.666V31.047L158.523 30.696C158.74 30.202 159.087 29.8163 159.563 29.539C160.04 29.253 160.608 29.11 161.266 29.11ZM168.206 36.065C167.564 36.065 167.07 35.8917 166.724 35.545C166.377 35.1983 166.204 34.7087 166.204 34.076V27.667H167.127V34.024C167.127 34.4227 167.226 34.7303 167.426 34.947C167.634 35.1637 167.928 35.272 168.31 35.272C168.717 35.272 169.055 35.155 169.324 34.921L169.649 35.584C169.467 35.7487 169.246 35.87 168.986 35.948C168.734 36.026 168.474 36.065 168.206 36.065ZM164.982 29.942V29.175H169.207V29.942H164.982ZM176.525 36.065C175.849 36.065 175.242 35.9177 174.705 35.623C174.176 35.3197 173.76 34.908 173.457 34.388C173.154 33.8593 173.002 33.257 173.002 32.581C173.002 31.8963 173.154 31.294 173.457 30.774C173.76 30.254 174.176 29.8467 174.705 29.552C175.242 29.2573 175.849 29.11 176.525 29.11C177.106 29.11 177.63 29.2227 178.098 29.448C178.566 29.6733 178.934 30.0113 179.203 30.462L178.514 30.93C178.28 30.5833 177.99 30.3277 177.643 30.163C177.296 29.9983 176.919 29.916 176.512 29.916C176.027 29.916 175.589 30.0287 175.199 30.254C174.809 30.4707 174.501 30.7783 174.276 31.177C174.051 31.5757 173.938 32.0437 173.938 32.581C173.938 33.1183 174.051 33.5863 174.276 33.985C174.501 34.3837 174.809 34.6957 175.199 34.921C175.589 35.1377 176.027 35.246 176.512 35.246C176.919 35.246 177.296 35.1637 177.643 34.999C177.99 34.8343 178.28 34.583 178.514 34.245L179.203 34.713C178.934 35.155 178.566 35.493 178.098 35.727C177.63 35.9523 177.106 36.065 176.525 36.065ZM183.164 36.065C182.505 36.065 181.912 35.9177 181.383 35.623C180.863 35.3197 180.451 34.908 180.148 34.388C179.845 33.8593 179.693 33.257 179.693 32.581C179.693 31.8963 179.845 31.294 180.148 30.774C180.451 30.254 180.863 29.8467 181.383 29.552C181.903 29.2573 182.497 29.11 183.164 29.11C183.84 29.11 184.438 29.2573 184.958 29.552C185.487 29.8467 185.898 30.254 186.193 30.774C186.496 31.294 186.648 31.8963 186.648 32.581C186.648 33.257 186.496 33.8593 186.193 34.388C185.898 34.908 185.487 35.3197 184.958 35.623C184.429 35.9177 183.831 36.065 183.164 36.065ZM183.164 35.246C183.658 35.246 184.096 35.1377 184.477 34.921C184.858 34.6957 185.157 34.3837 185.374 33.985C185.599 33.5777 185.712 33.1097 185.712 32.581C185.712 32.0437 185.599 31.5757 185.374 31.177C185.157 30.7783 184.858 30.4707 184.477 30.254C184.096 30.0287 183.662 29.916 183.177 29.916C182.692 29.916 182.258 30.0287 181.877 30.254C181.496 30.4707 181.192 30.7783 180.967 31.177C180.742 31.5757 180.629 32.0437 180.629 32.581C180.629 33.1097 180.742 33.5777 180.967 33.985C181.192 34.3837 181.496 34.6957 181.877 34.921C182.258 35.1377 182.687 35.246 183.164 35.246ZM187.913 36.065C187.722 36.065 187.558 35.9957 187.419 35.857C187.289 35.7183 187.224 35.5493 187.224 35.35C187.224 35.142 187.289 34.973 187.419 34.843C187.558 34.713 187.722 34.648 187.913 34.648C188.104 34.648 188.264 34.713 188.394 34.843C188.533 34.973 188.602 35.142 188.602 35.35C188.602 35.5493 188.533 35.7183 188.394 35.857C188.264 35.9957 188.104 36.065 187.913 36.065ZM190.252 36V26.9H191.214V35.168H196.31V36H190.252ZM199.287 36.065C198.645 36.065 198.151 35.8917 197.805 35.545C197.458 35.1983 197.285 34.7087 197.285 34.076V27.667H198.208V34.024C198.208 34.4227 198.307 34.7303 198.507 34.947C198.715 35.1637 199.009 35.272 199.391 35.272C199.798 35.272 200.136 35.155 200.405 34.921L200.73 35.584C200.548 35.7487 200.327 35.87 200.067 35.948C199.815 36.026 199.555 36.065 199.287 36.065ZM196.063 29.942V29.175H200.288V29.942H196.063ZM204.366 36.065C203.716 36.065 203.131 35.9177 202.611 35.623C202.099 35.3283 201.696 34.921 201.402 34.401C201.107 33.8723 200.96 33.2657 200.96 32.581C200.96 31.8877 201.107 31.281 201.402 30.761C201.696 30.241 202.099 29.838 202.611 29.552C203.131 29.2573 203.716 29.11 204.366 29.11C204.964 29.11 205.497 29.2443 205.965 29.513C206.441 29.7817 206.818 30.176 207.096 30.696C207.382 31.2073 207.525 31.8357 207.525 32.581C207.525 33.3177 207.386 33.946 207.109 34.466C206.831 34.986 206.454 35.3847 205.978 35.662C205.51 35.9307 204.972 36.065 204.366 36.065ZM204.431 35.246C204.916 35.246 205.349 35.1377 205.731 34.921C206.121 34.6957 206.424 34.3837 206.641 33.985C206.866 33.5777 206.979 33.1097 206.979 32.581C206.979 32.0437 206.866 31.5757 206.641 31.177C206.424 30.7783 206.121 30.4707 205.731 30.254C205.349 30.0287 204.916 29.916 204.431 29.916C203.954 29.916 203.525 30.0287 203.144 30.254C202.762 30.4707 202.459 30.7783 202.234 31.177C202.008 31.5757 201.896 32.0437 201.896 32.581C201.896 33.1097 202.008 33.5777 202.234 33.985C202.459 34.3837 202.762 34.6957 203.144 34.921C203.525 35.1377 203.954 35.246 204.431 35.246ZM207.005 36V33.946L207.096 32.568L206.966 31.19V26.354H207.889V36H207.005ZM210.03 36.065C209.84 36.065 209.675 35.9957 209.536 35.857C209.406 35.7183 209.341 35.5493 209.341 35.35C209.341 35.142 209.406 34.973 209.536 34.843C209.675 34.713 209.84 34.648 210.03 34.648C210.221 34.648 210.381 34.713 210.511 34.843C210.65 34.973 210.719 35.142 210.719 35.35C210.719 35.5493 210.65 35.7183 210.511 35.857C210.381 35.9957 210.221 36.065 210.03 36.065Z" fill="#7B7B7B"/>
<path d="M28 37C43.464 37 56 29.8366 56 21C56 12.1634 43.464 5 28 5C12.536 5 0 12.1634 0 21C0 29.8366 12.536 37 28 37Z" fill="#7B7B7B"/>
<path d="M9.00213 14H15.9637V16.0746H15.5039C15.0612 16.0746 14.7881 16.1002 14.6857 16.1502C14.5225 16.229 14.4041 16.3401 14.3326 16.4833C14.2612 16.6266 14.2249 16.8954 14.2249 17.2908V21.2834L18.671 16.9454C18.8684 16.7521 18.9879 16.6211 19.0284 16.5533C19.0689 16.4856 19.0903 16.4267 19.0903 16.3756C19.0903 16.2757 19.0508 16.2001 18.9729 16.1502C18.894 16.1002 18.6956 16.0746 18.3756 16.0746H17.8038V14H24.2543V16.0746H24.0399C23.7402 16.0746 23.5322 16.0913 23.4159 16.1235C23.2996 16.1557 23.1588 16.2257 22.9913 16.3334C22.8239 16.4411 22.6084 16.6166 22.3417 16.8598L18.8951 19.9973L23.0063 25.8381C23.3604 26.3401 23.6196 26.6377 23.7829 26.731C24.0005 26.8598 24.3141 26.9243 24.7237 26.9243H25V28.9989H17.8027V26.9243H18.0886C18.6134 26.9243 18.9324 26.8987 19.0444 26.8487C19.1564 26.7988 19.2129 26.7343 19.2129 26.6555C19.2129 26.5689 19.1073 26.3645 18.8961 26.0424L16.3872 22.2808L14.2249 24.2488V25.7581C14.2249 26.1291 14.259 26.3856 14.3273 26.5289C14.3956 26.6721 14.4926 26.7732 14.6185 26.8343C14.7444 26.8954 14.9983 26.9254 15.3802 26.9254H15.9626V29H9.00107V26.9254H9.5259C9.9302 26.9254 10.2011 26.8909 10.3377 26.8232C10.4753 26.7554 10.5745 26.6455 10.6364 26.4956C10.6908 26.3734 10.7185 26.0802 10.7185 25.6137V17.4218C10.7185 16.9776 10.6876 16.6799 10.6257 16.5289C10.5638 16.3789 10.4646 16.2657 10.327 16.1901C10.1905 16.1146 9.943 16.0769 9.58671 16.0769H9V14.0022L9.00213 14Z" fill="#EFEFEF"/>
<path d="M26.0011 14H32.9989V16.0751H32.362C31.992 16.0751 31.7476 16.1095 31.6275 16.1773C31.5074 16.2451 31.4184 16.3528 31.3604 16.4994C31.3025 16.6461 31.2736 16.9282 31.2736 17.3437V25.6452C31.2736 26.0962 31.2972 26.3872 31.3454 26.5161C31.3937 26.645 31.4752 26.7383 31.5921 26.796C31.7358 26.8816 31.9513 26.9249 32.2397 26.9249H33V29H26.0021V26.9249H26.5705C26.9769 26.9249 27.2428 26.8938 27.3661 26.8338C27.4905 26.7727 27.5816 26.6761 27.6396 26.5439C27.6985 26.4117 27.7275 26.1484 27.7275 25.7529V17.4192C27.7275 16.9538 27.6985 16.6472 27.6396 16.4994C27.5806 16.3528 27.483 16.2395 27.3447 16.1606C27.2482 16.1029 27.0133 16.0751 26.6412 16.0751H26V14H26.0011Z" fill="#EFEFEF"/>
<path d="M45.4935 14.2491H47.0021L48.4575 19.4575L46.4797 20.0191C45.8207 18.7788 45.2006 17.8982 44.6194 17.3784C43.8118 16.6643 42.9365 16.3078 41.9936 16.3078C41.3059 16.3078 40.6625 16.4946 40.0646 16.8694C39.4655 17.2442 38.9908 17.7951 38.6402 18.5221C38.2897 19.2502 38.1144 20.1018 38.1144 21.079C38.1144 22.5696 38.516 23.8507 39.3213 24.9257C40.1256 25.9996 41.1794 26.5365 42.484 26.5365C43.3126 26.5365 44.1102 26.3046 44.8756 25.8406C45.8318 25.265 46.6583 24.4929 47.3527 23.5221L49 24.7174C47.9306 26.1456 46.9533 27.139 46.0681 27.7006C44.7015 28.5672 43.1784 29 41.5 29C40.1045 29 38.8421 28.6725 37.7128 28.0174C36.5836 27.3623 35.6817 26.4463 35.0095 25.2683C34.3372 24.0902 34 22.8048 34 21.4119C34 20.0191 34.3272 18.7627 34.9828 17.6233C35.6384 16.4828 36.5303 15.5947 37.6596 14.9568C38.7889 14.3189 40.0479 14 41.4357 14C42.8234 14 44.0802 14.291 45.143 14.8731L45.4935 14.2491Z" fill="#EFEFEF"/>
</svg>
