<svg width="31" height="18" viewBox="0 0 31 18" fill="none" xmlns="http://www.w3.org/2000/svg">
<g clip-path="url(#clip0_1987_9712)">
<path d="M15.4997 18C24.0599 18 30.9994 13.9706 30.9994 9C30.9994 4.02944 24.0599 0 15.4997 0C6.93945 0 0 4.02944 0 9C0 13.9706 6.93945 18 15.4997 18Z" fill="#282973"/>
<path d="M4.67894 4.81071H8.60119V5.99767H8.34215C8.09273 5.99767 7.93887 6.01228 7.88117 6.04088C7.78921 6.08599 7.7225 6.14953 7.68223 6.2315C7.64196 6.31347 7.62153 6.46724 7.62153 6.69345V8.97776L10.1266 6.49583C10.2378 6.38527 10.3051 6.31029 10.3279 6.27153C10.3508 6.23277 10.3628 6.19909 10.3628 6.16986C10.3628 6.11268 10.3405 6.06947 10.2967 6.04088C10.2522 6.01228 10.1404 5.99767 9.9601 5.99767H9.63795V4.81071H13.2723V5.99767H13.1515C12.9826 5.99767 12.8654 6.0072 12.7999 6.02563C12.7344 6.04405 12.6551 6.08408 12.5607 6.14572C12.4664 6.20735 12.3449 6.30775 12.1947 6.44691L10.2528 8.24195L12.5691 11.5836C12.7687 11.8708 12.9147 12.0411 13.0067 12.0945C13.1293 12.1682 13.306 12.205 13.5368 12.205H13.6924V13.392H9.63735V12.205H9.79842C10.0941 12.205 10.2738 12.1904 10.3369 12.1618C10.4 12.1332 10.4319 12.0964 10.4319 12.0513C10.4319 12.0017 10.3724 11.8848 10.2534 11.7005L8.8398 9.54836L7.62153 10.6743V11.5378C7.62153 11.7501 7.64076 11.8968 7.67923 11.9788C7.71769 12.0608 7.77239 12.1186 7.84331 12.1536C7.91423 12.1885 8.05727 12.2057 8.27243 12.2057H8.60059V13.3926H4.67834V12.2057H4.97404C5.20182 12.2057 5.35448 12.186 5.43141 12.1472C5.50894 12.1084 5.56484 12.0455 5.5997 11.9598C5.63035 11.8899 5.64598 11.7221 5.64598 11.4552V6.76842C5.64598 6.51426 5.62855 6.34397 5.59369 6.25755C5.55883 6.17177 5.50293 6.10696 5.4254 6.06375C5.34847 6.02054 5.20904 5.99894 5.0083 5.99894H4.67773V4.81199L4.67894 4.81071Z" fill="white"/>
<path d="M14.0795 4.81071H18.0017V5.99767H17.6447C17.4374 5.99767 17.3003 6.01737 17.233 6.05613C17.1657 6.09489 17.1158 6.15652 17.0834 6.2404C17.0509 6.32427 17.0347 6.48567 17.0347 6.72331V11.4718C17.0347 11.7297 17.0479 11.8962 17.0749 11.9699C17.102 12.0436 17.1477 12.097 17.2132 12.13C17.2937 12.179 17.4145 12.2038 17.5762 12.2038H18.0023V13.3907H14.0801V12.2038H14.3986C14.6264 12.2038 14.7754 12.186 14.8446 12.1517C14.9143 12.1167 14.9654 12.0614 14.9978 11.9858C15.0309 11.9102 15.0471 11.7596 15.0471 11.5334V6.76652C15.0471 6.50028 15.0309 6.32491 14.9978 6.2404C14.9648 6.15652 14.9101 6.09171 14.8325 6.04659C14.7784 6.01355 14.6468 5.99767 14.4383 5.99767H14.0789V4.81071H14.0795Z" fill="white"/>
<path d="M25.0355 4.81072H25.8528L26.6414 7.89247L25.5698 8.22479C25.2128 7.49089 24.8768 6.96985 24.5619 6.66231C24.1243 6.23976 23.6501 6.0288 23.1392 6.0288C22.7666 6.0288 22.418 6.13937 22.0941 6.36113C21.7695 6.58288 21.5123 6.90885 21.3224 7.33903C21.1324 7.76984 21.0375 8.27372 21.0375 8.85195C21.0375 9.7339 21.255 10.492 21.6914 11.128C22.1271 11.7634 22.6981 12.0811 23.4049 12.0811C23.8539 12.0811 24.286 11.9439 24.7007 11.6694C25.2188 11.3288 25.6665 10.8719 26.0428 10.2975L26.9353 11.0047C26.3559 11.8498 25.8264 12.4376 25.3468 12.7699C24.6063 13.2827 23.7811 13.5388 22.8718 13.5388C22.1157 13.5388 21.4317 13.345 20.8199 12.9574C20.2081 12.5698 19.7194 12.0277 19.3552 11.3307C18.991 10.6336 18.8083 9.87306 18.8083 9.04893C18.8083 8.22479 18.9856 7.48136 19.3408 6.80719C19.696 6.13238 20.1792 5.60689 20.7911 5.22945C21.4029 4.85202 22.085 4.6633 22.8369 4.6633C23.5888 4.6633 24.2698 4.8355 24.8455 5.17989L25.0355 4.81072Z" fill="white"/>
</g>
<defs>
<clipPath id="clip0_1987_9712">
<rect width="31" height="18" fill="white"/>
</clipPath>
</defs>
</svg>
