<?xml version="1.0" encoding="UTF-8"?>
<svg id="_레이어_2" data-name="레이어 2" xmlns="http://www.w3.org/2000/svg" viewBox="0 0 282 56.76">
  <g id="_레이어_1-2" data-name="레이어 1">
    <g>
      <path d="m21.66,48.72v-10.8H3.84V15.42h35.82v-7.08H3.84V.3h43.92v22.68H11.94v6.9h36.3v8.04h-18.3v10.8h21.66v8.04H0v-8.04h21.66Z"/>
      <path d="m72.9,48.9v-24.06h8.76v24.06h11.28l3.12-40.26h-34.8V.6h43.8v8.04l-3.12,40.26h7.26v7.86h-51.6v-7.86h15.3Z"/>
      <path d="m116.1.3h22.56v8.1h-13.62v15.3h12.48v7.98h-12.48v16.8h14.7v7.98h-23.64V.3Zm37.8,56.46h-7.8v-25.08h-4.98v-8.22h4.98V0h7.8v56.76Zm11.94,0h-7.8V0h7.8v56.76Z"/>
      <path d="m224.4,48.9v7.86h-51.6v-7.86h51.6Zm-12.54-11.22l-13.26-26.4-13.26,26.4h-10.5L192.9.18h11.4l18.06,37.5h-10.5Z"/>
      <path d="m282,48.9v7.86h-51.6v-7.86h51.6Zm-2.76-48.6v8.1h-36.66v6.9h36.66v8.1h-36.66v6.42h36.66v8.1h-45.96V.3h45.96Z"/>
    </g>
  </g>
</svg>