<?xml version="1.0" encoding="UTF-8"?>
<svg id="_레이어_2" data-name="레이어 2" xmlns="http://www.w3.org/2000/svg" viewBox="0 0 283 57">
  <g id="_레이어_1-2" data-name="레이어 1">
    <polygon points="22 49 22 38 4 38 4 15 40 15 40 8 4 8 4 0 48 0 48 23 13 23 13 30 49 30 49 38 31 38 31 49 52 49 52 57 0 57 0 49 22 49"/>
    <path d="m73,49v-24h9v24h11.06l3.06-40h-34.12V1h44c.62,4.67-2.77,42.39-3.13,48h7.13v8h-52v-8h15Z"/>
    <polygon points="116 0 139 0 139 8 125 8 125 23 138 23 138 31 125 31 125 48 140 48 140 56 116 56 116 0"/>
    <polygon points="155 57 147 57 147 31 142 31 142 23 147 23 147 0 155 0 155 57"/>
    <rect x="158" width="8" height="57"/>
    <rect x="173" y="49" width="52" height="8"/>
    <polygon points="212.22 37 199.14 10.95 186.05 37 175.69 37 193.51 0 204.76 0 222.58 37 212.22 37"/>
    <rect x="231" y="49" width="52" height="8"/>
    <polygon points="280 0 280 8 243 8 243 15 280 15 280 23 243 23 243 29 280 29 280 38 234 38 234 0 280 0"/>
  </g>
</svg>